<mxfile host="app.diagrams.net" agent="Mozilla/5.0 (Windows NT 10.0; Win64; x64) AppleWebKit/537.36 (KHTML, like Gecko) Chrome/126.0.0.0 Safari/537.36" version="24.7.4">
  <diagram name="Page-1" id="QddCFKAwr_s8W2c5yRXH">
    <mxGraphModel dx="830" dy="515" grid="1" gridSize="10" guides="1" tooltips="1" connect="1" arrows="1" fold="1" page="1" pageScale="1" pageWidth="850" pageHeight="1100" math="0" shadow="0">
      <root>
        <mxCell id="0" />
        <mxCell id="1" parent="0" />
        <mxCell id="doq9bguJ9vz2plIqA9WR-2" value="nama_depan" style="ellipse;whiteSpace=wrap;html=1;align=center;strokeColor=#000000;fillColor=#FFFFFF;" vertex="1" parent="1">
          <mxGeometry x="20" y="80" width="100" height="40" as="geometry" />
        </mxCell>
        <mxCell id="doq9bguJ9vz2plIqA9WR-3" value="nama_belakang" style="ellipse;whiteSpace=wrap;html=1;align=center;strokeColor=#000000;fillColor=#FFFFFF;" vertex="1" parent="1">
          <mxGeometry x="240" y="80" width="100" height="40" as="geometry" />
        </mxCell>
        <mxCell id="doq9bguJ9vz2plIqA9WR-4" value="nama_tengah" style="ellipse;whiteSpace=wrap;html=1;align=center;strokeColor=#000000;fillColor=#FFFFFF;" vertex="1" parent="1">
          <mxGeometry x="130" y="40" width="100" height="40" as="geometry" />
        </mxCell>
        <mxCell id="doq9bguJ9vz2plIqA9WR-5" value="nama" style="ellipse;whiteSpace=wrap;html=1;align=center;strokeColor=#000000;fillColor=#FFFFFF;" vertex="1" parent="1">
          <mxGeometry x="145" y="130" width="70" height="50" as="geometry" />
        </mxCell>
        <mxCell id="doq9bguJ9vz2plIqA9WR-6" value="&lt;u&gt;nim&lt;/u&gt;" style="ellipse;whiteSpace=wrap;html=1;align=center;strokeColor=#000000;fillColor=#FFFFFF;" vertex="1" parent="1">
          <mxGeometry x="40" y="170" width="80" height="50" as="geometry" />
        </mxCell>
        <mxCell id="doq9bguJ9vz2plIqA9WR-7" value="alamat" style="ellipse;whiteSpace=wrap;html=1;align=center;strokeColor=#000000;fillColor=#FFFFFF;" vertex="1" parent="1">
          <mxGeometry x="40" y="310" width="80" height="50" as="geometry" />
        </mxCell>
        <mxCell id="doq9bguJ9vz2plIqA9WR-8" value="jurusan" style="ellipse;whiteSpace=wrap;html=1;align=center;strokeColor=#000000;fillColor=#FFFFFF;" vertex="1" parent="1">
          <mxGeometry x="10" y="240" width="80" height="50" as="geometry" />
        </mxCell>
        <mxCell id="doq9bguJ9vz2plIqA9WR-10" value="Mahasiswa" style="whiteSpace=wrap;html=1;align=center;strokeColor=#000000;fillColor=#FFFFFF;" vertex="1" parent="1">
          <mxGeometry x="130" y="240" width="100" height="40" as="geometry" />
        </mxCell>
        <mxCell id="doq9bguJ9vz2plIqA9WR-12" value="" style="endArrow=none;html=1;rounded=0;exitX=1;exitY=0.5;exitDx=0;exitDy=0;entryX=0.5;entryY=0;entryDx=0;entryDy=0;strokeColor=#000000;fillColor=#FFFFFF;" edge="1" parent="1" source="doq9bguJ9vz2plIqA9WR-2" target="doq9bguJ9vz2plIqA9WR-5">
          <mxGeometry relative="1" as="geometry">
            <mxPoint x="320" y="190" as="sourcePoint" />
            <mxPoint x="480" y="190" as="targetPoint" />
          </mxGeometry>
        </mxCell>
        <mxCell id="doq9bguJ9vz2plIqA9WR-13" value="" style="endArrow=none;html=1;rounded=0;exitX=0.5;exitY=1;exitDx=0;exitDy=0;entryX=0.5;entryY=0;entryDx=0;entryDy=0;strokeColor=#000000;fillColor=#FFFFFF;" edge="1" parent="1" source="doq9bguJ9vz2plIqA9WR-4" target="doq9bguJ9vz2plIqA9WR-5">
          <mxGeometry relative="1" as="geometry">
            <mxPoint x="320" y="190" as="sourcePoint" />
            <mxPoint x="480" y="190" as="targetPoint" />
          </mxGeometry>
        </mxCell>
        <mxCell id="doq9bguJ9vz2plIqA9WR-15" value="" style="endArrow=none;html=1;rounded=0;exitX=0;exitY=0.5;exitDx=0;exitDy=0;strokeColor=#000000;fillColor=#FFFFFF;entryX=0.5;entryY=0;entryDx=0;entryDy=0;" edge="1" parent="1" source="doq9bguJ9vz2plIqA9WR-3" target="doq9bguJ9vz2plIqA9WR-5">
          <mxGeometry relative="1" as="geometry">
            <mxPoint x="320" y="190" as="sourcePoint" />
            <mxPoint x="180" y="130" as="targetPoint" />
          </mxGeometry>
        </mxCell>
        <mxCell id="doq9bguJ9vz2plIqA9WR-17" value="" style="endArrow=none;html=1;rounded=0;exitX=0.5;exitY=0;exitDx=0;exitDy=0;entryX=0.5;entryY=1;entryDx=0;entryDy=0;strokeColor=#000000;fillColor=#FFFFFF;" edge="1" parent="1" source="doq9bguJ9vz2plIqA9WR-10" target="doq9bguJ9vz2plIqA9WR-5">
          <mxGeometry relative="1" as="geometry">
            <mxPoint x="320" y="190" as="sourcePoint" />
            <mxPoint x="480" y="190" as="targetPoint" />
          </mxGeometry>
        </mxCell>
        <mxCell id="doq9bguJ9vz2plIqA9WR-18" value="" style="endArrow=none;html=1;rounded=0;entryX=1;entryY=0.5;entryDx=0;entryDy=0;exitX=0;exitY=0.5;exitDx=0;exitDy=0;strokeColor=#000000;fillColor=#FFFFFF;" edge="1" parent="1" source="doq9bguJ9vz2plIqA9WR-10" target="doq9bguJ9vz2plIqA9WR-8">
          <mxGeometry relative="1" as="geometry">
            <mxPoint x="130" y="260" as="sourcePoint" />
            <mxPoint x="190" y="190" as="targetPoint" />
          </mxGeometry>
        </mxCell>
        <mxCell id="doq9bguJ9vz2plIqA9WR-19" value="" style="endArrow=none;html=1;rounded=0;exitX=0;exitY=0.5;exitDx=0;exitDy=0;entryX=1;entryY=0;entryDx=0;entryDy=0;strokeColor=#000000;fillColor=#FFFFFF;" edge="1" parent="1" source="doq9bguJ9vz2plIqA9WR-10" target="doq9bguJ9vz2plIqA9WR-7">
          <mxGeometry relative="1" as="geometry">
            <mxPoint x="200" y="260" as="sourcePoint" />
            <mxPoint x="200" y="200" as="targetPoint" />
          </mxGeometry>
        </mxCell>
        <mxCell id="doq9bguJ9vz2plIqA9WR-20" value="" style="endArrow=none;html=1;rounded=0;exitX=0;exitY=0.5;exitDx=0;exitDy=0;strokeColor=#000000;fillColor=#FFFFFF;" edge="1" parent="1" source="doq9bguJ9vz2plIqA9WR-10" target="doq9bguJ9vz2plIqA9WR-6">
          <mxGeometry relative="1" as="geometry">
            <mxPoint x="210" y="270" as="sourcePoint" />
            <mxPoint x="210" y="210" as="targetPoint" />
          </mxGeometry>
        </mxCell>
        <mxCell id="doq9bguJ9vz2plIqA9WR-22" value="&lt;u&gt;nim&lt;/u&gt;" style="ellipse;whiteSpace=wrap;html=1;align=center;strokeColor=#000000;fillColor=#FFFFFF;" vertex="1" parent="1">
          <mxGeometry x="490" y="75" width="80" height="50" as="geometry" />
        </mxCell>
        <mxCell id="doq9bguJ9vz2plIqA9WR-28" value="jurusan" style="ellipse;whiteSpace=wrap;html=1;align=center;strokeColor=#000000;fillColor=#FFFFFF;" vertex="1" parent="1">
          <mxGeometry x="370" y="75" width="80" height="50" as="geometry" />
        </mxCell>
        <mxCell id="doq9bguJ9vz2plIqA9WR-29" value="alamat" style="ellipse;whiteSpace=wrap;html=1;align=center;strokeColor=#000000;fillColor=#FFFFFF;" vertex="1" parent="1">
          <mxGeometry x="330" y="150" width="80" height="50" as="geometry" />
        </mxCell>
        <mxCell id="doq9bguJ9vz2plIqA9WR-30" value="nama" style="ellipse;whiteSpace=wrap;html=1;align=center;strokeColor=#000000;fillColor=#FFFFFF;" vertex="1" parent="1">
          <mxGeometry x="520" y="150" width="70" height="50" as="geometry" />
        </mxCell>
        <mxCell id="doq9bguJ9vz2plIqA9WR-32" value="mendaftar" style="shape=rhombus;perimeter=rhombusPerimeter;whiteSpace=wrap;html=1;align=center;strokeColor=#000000;fillColor=#FFFFFF;" vertex="1" parent="1">
          <mxGeometry x="420" y="215" width="100" height="90" as="geometry" />
        </mxCell>
        <mxCell id="doq9bguJ9vz2plIqA9WR-33" value="" style="endArrow=none;html=1;rounded=0;exitX=1;exitY=1;exitDx=0;exitDy=0;entryX=0.5;entryY=0;entryDx=0;entryDy=0;strokeColor=#000000;fillColor=#FFFFFF;" edge="1" parent="1" source="doq9bguJ9vz2plIqA9WR-28" target="doq9bguJ9vz2plIqA9WR-32">
          <mxGeometry relative="1" as="geometry">
            <mxPoint x="320" y="190" as="sourcePoint" />
            <mxPoint x="480" y="190" as="targetPoint" />
          </mxGeometry>
        </mxCell>
        <mxCell id="doq9bguJ9vz2plIqA9WR-34" value="" style="endArrow=none;html=1;rounded=0;exitX=0;exitY=0.5;exitDx=0;exitDy=0;entryX=0.5;entryY=0;entryDx=0;entryDy=0;strokeColor=#000000;fillColor=#FFFFFF;" edge="1" parent="1" source="doq9bguJ9vz2plIqA9WR-30" target="doq9bguJ9vz2plIqA9WR-32">
          <mxGeometry relative="1" as="geometry">
            <mxPoint x="520" y="175" as="sourcePoint" />
            <mxPoint x="480" y="225" as="targetPoint" />
          </mxGeometry>
        </mxCell>
        <mxCell id="doq9bguJ9vz2plIqA9WR-35" value="" style="endArrow=none;html=1;rounded=0;exitX=0;exitY=0.5;exitDx=0;exitDy=0;entryX=0.5;entryY=0;entryDx=0;entryDy=0;strokeColor=#000000;fillColor=#FFFFFF;" edge="1" parent="1" source="doq9bguJ9vz2plIqA9WR-22" target="doq9bguJ9vz2plIqA9WR-32">
          <mxGeometry relative="1" as="geometry">
            <mxPoint x="458" y="138" as="sourcePoint" />
            <mxPoint x="490" y="235" as="targetPoint" />
          </mxGeometry>
        </mxCell>
        <mxCell id="doq9bguJ9vz2plIqA9WR-36" value="" style="endArrow=none;html=1;rounded=0;exitX=1;exitY=0.5;exitDx=0;exitDy=0;entryX=0.5;entryY=0;entryDx=0;entryDy=0;strokeColor=#000000;fillColor=#FFFFFF;" edge="1" parent="1" source="doq9bguJ9vz2plIqA9WR-29" target="doq9bguJ9vz2plIqA9WR-32">
          <mxGeometry relative="1" as="geometry">
            <mxPoint x="530" y="185" as="sourcePoint" />
            <mxPoint x="480" y="225" as="targetPoint" />
          </mxGeometry>
        </mxCell>
        <mxCell id="doq9bguJ9vz2plIqA9WR-41" value="" style="endArrow=none;html=1;rounded=0;exitX=1;exitY=0.5;exitDx=0;exitDy=0;entryX=0;entryY=0.5;entryDx=0;entryDy=0;strokeColor=#000000;fillColor=#FFFFFF;" edge="1" parent="1" source="doq9bguJ9vz2plIqA9WR-10" target="doq9bguJ9vz2plIqA9WR-32">
          <mxGeometry relative="1" as="geometry">
            <mxPoint x="320" y="190" as="sourcePoint" />
            <mxPoint x="480" y="190" as="targetPoint" />
          </mxGeometry>
        </mxCell>
        <mxCell id="doq9bguJ9vz2plIqA9WR-42" value="Many" style="edgeLabel;html=1;align=center;verticalAlign=middle;resizable=0;points=[];strokeColor=#000000;fillColor=#FFFFFF;" vertex="1" connectable="0" parent="doq9bguJ9vz2plIqA9WR-41">
          <mxGeometry x="0.0421" y="-3" relative="1" as="geometry">
            <mxPoint x="-9" y="7" as="offset" />
          </mxGeometry>
        </mxCell>
        <mxCell id="doq9bguJ9vz2plIqA9WR-43" value="nama" style="ellipse;whiteSpace=wrap;html=1;align=center;strokeColor=#000000;fillColor=#FFFFFF;" vertex="1" parent="1">
          <mxGeometry x="640" y="75" width="70" height="50" as="geometry" />
        </mxCell>
        <mxCell id="doq9bguJ9vz2plIqA9WR-44" value="jurusan" style="ellipse;whiteSpace=wrap;html=1;align=center;strokeColor=#000000;fillColor=#FFFFFF;" vertex="1" parent="1">
          <mxGeometry x="750" y="70" width="80" height="50" as="geometry" />
        </mxCell>
        <mxCell id="doq9bguJ9vz2plIqA9WR-45" value="&lt;u&gt;nomor_anggota&lt;/u&gt;" style="ellipse;whiteSpace=wrap;html=1;align=center;strokeColor=#000000;fillColor=#FFFFFF;" vertex="1" parent="1">
          <mxGeometry x="600" y="150" width="100" height="50" as="geometry" />
        </mxCell>
        <mxCell id="doq9bguJ9vz2plIqA9WR-46" value="masa_berlaku" style="ellipse;whiteSpace=wrap;html=1;align=center;strokeColor=#000000;fillColor=#FFFFFF;" vertex="1" parent="1">
          <mxGeometry x="760" y="150" width="90" height="50" as="geometry" />
        </mxCell>
        <mxCell id="doq9bguJ9vz2plIqA9WR-47" value="anggota_perputakaan" style="whiteSpace=wrap;html=1;align=center;strokeColor=#000000;fillColor=#FFFFFF;" vertex="1" parent="1">
          <mxGeometry x="665" y="240" width="130" height="40" as="geometry" />
        </mxCell>
        <mxCell id="doq9bguJ9vz2plIqA9WR-48" value="" style="endArrow=none;html=1;rounded=0;exitX=1;exitY=0.5;exitDx=0;exitDy=0;entryX=0;entryY=0.5;entryDx=0;entryDy=0;strokeColor=#000000;fillColor=#FFFFFF;" edge="1" parent="1" source="doq9bguJ9vz2plIqA9WR-32" target="doq9bguJ9vz2plIqA9WR-47">
          <mxGeometry relative="1" as="geometry">
            <mxPoint x="440" y="310" as="sourcePoint" />
            <mxPoint x="630" y="310" as="targetPoint" />
          </mxGeometry>
        </mxCell>
        <mxCell id="doq9bguJ9vz2plIqA9WR-49" value="Many" style="edgeLabel;html=1;align=center;verticalAlign=middle;resizable=0;points=[];strokeColor=#000000;fillColor=#FFFFFF;" vertex="1" connectable="0" parent="doq9bguJ9vz2plIqA9WR-48">
          <mxGeometry x="0.0421" y="-3" relative="1" as="geometry">
            <mxPoint x="-6" y="7" as="offset" />
          </mxGeometry>
        </mxCell>
        <mxCell id="doq9bguJ9vz2plIqA9WR-50" value="" style="endArrow=none;html=1;rounded=0;exitX=0;exitY=0.5;exitDx=0;exitDy=0;entryX=0.5;entryY=0;entryDx=0;entryDy=0;strokeColor=#000000;fillColor=#FFFFFF;" edge="1" parent="1" source="doq9bguJ9vz2plIqA9WR-46" target="doq9bguJ9vz2plIqA9WR-47">
          <mxGeometry relative="1" as="geometry">
            <mxPoint x="500" y="110" as="sourcePoint" />
            <mxPoint x="480" y="225" as="targetPoint" />
          </mxGeometry>
        </mxCell>
        <mxCell id="doq9bguJ9vz2plIqA9WR-51" value="" style="endArrow=none;html=1;rounded=0;exitX=1;exitY=0.5;exitDx=0;exitDy=0;entryX=0.5;entryY=0;entryDx=0;entryDy=0;strokeColor=#000000;fillColor=#FFFFFF;" edge="1" parent="1" source="doq9bguJ9vz2plIqA9WR-45" target="doq9bguJ9vz2plIqA9WR-47">
          <mxGeometry relative="1" as="geometry">
            <mxPoint x="510" y="120" as="sourcePoint" />
            <mxPoint x="490" y="235" as="targetPoint" />
          </mxGeometry>
        </mxCell>
        <mxCell id="doq9bguJ9vz2plIqA9WR-52" value="" style="endArrow=none;html=1;rounded=0;exitX=1;exitY=0.5;exitDx=0;exitDy=0;entryX=0.5;entryY=0;entryDx=0;entryDy=0;strokeColor=#000000;fillColor=#FFFFFF;" edge="1" parent="1" source="doq9bguJ9vz2plIqA9WR-43" target="doq9bguJ9vz2plIqA9WR-47">
          <mxGeometry relative="1" as="geometry">
            <mxPoint x="520" y="130" as="sourcePoint" />
            <mxPoint x="500" y="245" as="targetPoint" />
          </mxGeometry>
        </mxCell>
        <mxCell id="doq9bguJ9vz2plIqA9WR-53" value="" style="endArrow=none;html=1;rounded=0;exitX=0;exitY=0.5;exitDx=0;exitDy=0;entryX=0.5;entryY=0;entryDx=0;entryDy=0;strokeColor=#000000;fillColor=#FFFFFF;" edge="1" parent="1" source="doq9bguJ9vz2plIqA9WR-44" target="doq9bguJ9vz2plIqA9WR-47">
          <mxGeometry relative="1" as="geometry">
            <mxPoint x="530" y="140" as="sourcePoint" />
            <mxPoint x="510" y="255" as="targetPoint" />
          </mxGeometry>
        </mxCell>
        <mxCell id="doq9bguJ9vz2plIqA9WR-54" value="kode_peminjam" style="ellipse;whiteSpace=wrap;html=1;align=center;strokeColor=#000000;fillColor=#FFFFFF;" vertex="1" parent="1">
          <mxGeometry x="530" y="320" width="110" height="50" as="geometry" />
        </mxCell>
        <mxCell id="doq9bguJ9vz2plIqA9WR-55" value="tanggal_pinjam" style="ellipse;whiteSpace=wrap;html=1;align=center;strokeColor=#000000;fillColor=#FFFFFF;" vertex="1" parent="1">
          <mxGeometry x="530" y="460" width="120" height="50" as="geometry" />
        </mxCell>
        <mxCell id="doq9bguJ9vz2plIqA9WR-56" value="tanggal_kembali" style="ellipse;whiteSpace=wrap;html=1;align=center;strokeColor=#000000;fillColor=#FFFFFF;" vertex="1" parent="1">
          <mxGeometry x="500" y="390" width="110" height="50" as="geometry" />
        </mxCell>
        <mxCell id="doq9bguJ9vz2plIqA9WR-57" value="&lt;u&gt;nomor_anggota&lt;/u&gt;" style="ellipse;whiteSpace=wrap;html=1;align=center;strokeColor=#000000;fillColor=#FFFFFF;" vertex="1" parent="1">
          <mxGeometry x="830" y="320" width="110" height="50" as="geometry" />
        </mxCell>
        <mxCell id="doq9bguJ9vz2plIqA9WR-58" value="&lt;u&gt;nomor_buku&lt;/u&gt;" style="ellipse;whiteSpace=wrap;html=1;align=center;strokeColor=#000000;fillColor=#FFFFFF;" vertex="1" parent="1">
          <mxGeometry x="860" y="410" width="110" height="50" as="geometry" />
        </mxCell>
        <mxCell id="doq9bguJ9vz2plIqA9WR-59" value="judul_buku" style="ellipse;whiteSpace=wrap;html=1;align=center;strokeColor=#000000;fillColor=#FFFFFF;" vertex="1" parent="1">
          <mxGeometry x="850" y="480" width="110" height="50" as="geometry" />
        </mxCell>
        <mxCell id="doq9bguJ9vz2plIqA9WR-60" value="denda" style="ellipse;whiteSpace=wrap;html=1;align=center;strokeColor=#000000;fillColor=#FFFFFF;" vertex="1" parent="1">
          <mxGeometry x="820" y="560" width="110" height="50" as="geometry" />
        </mxCell>
        <mxCell id="doq9bguJ9vz2plIqA9WR-61" value="meminjam" style="shape=rhombus;perimeter=rhombusPerimeter;whiteSpace=wrap;html=1;align=center;strokeColor=#000000;fillColor=#FFFFFF;" vertex="1" parent="1">
          <mxGeometry x="670" y="380" width="120" height="60" as="geometry" />
        </mxCell>
        <mxCell id="doq9bguJ9vz2plIqA9WR-62" value="" style="endArrow=none;html=1;rounded=0;exitX=0.5;exitY=1;exitDx=0;exitDy=0;entryX=0.5;entryY=0;entryDx=0;entryDy=0;strokeColor=#000000;fillColor=#FFFFFF;" edge="1" parent="1" source="doq9bguJ9vz2plIqA9WR-47" target="doq9bguJ9vz2plIqA9WR-61">
          <mxGeometry relative="1" as="geometry">
            <mxPoint x="550" y="490" as="sourcePoint" />
            <mxPoint x="710" y="490" as="targetPoint" />
          </mxGeometry>
        </mxCell>
        <mxCell id="doq9bguJ9vz2plIqA9WR-63" value="1" style="edgeLabel;html=1;align=center;verticalAlign=middle;resizable=0;points=[];strokeColor=#000000;fillColor=#FFFFFF;" vertex="1" connectable="0" parent="doq9bguJ9vz2plIqA9WR-62">
          <mxGeometry x="-0.64" relative="1" as="geometry">
            <mxPoint as="offset" />
          </mxGeometry>
        </mxCell>
        <mxCell id="doq9bguJ9vz2plIqA9WR-64" value="" style="endArrow=none;html=1;rounded=0;exitX=1.009;exitY=0.66;exitDx=0;exitDy=0;exitPerimeter=0;entryX=0;entryY=0.5;entryDx=0;entryDy=0;strokeColor=#000000;fillColor=#FFFFFF;" edge="1" parent="1" source="doq9bguJ9vz2plIqA9WR-54" target="doq9bguJ9vz2plIqA9WR-61">
          <mxGeometry relative="1" as="geometry">
            <mxPoint x="550" y="490" as="sourcePoint" />
            <mxPoint x="710" y="490" as="targetPoint" />
          </mxGeometry>
        </mxCell>
        <mxCell id="doq9bguJ9vz2plIqA9WR-65" value="" style="endArrow=none;html=1;rounded=0;exitX=1;exitY=0.5;exitDx=0;exitDy=0;entryX=0;entryY=0.5;entryDx=0;entryDy=0;strokeColor=#000000;fillColor=#FFFFFF;" edge="1" parent="1" source="doq9bguJ9vz2plIqA9WR-55" target="doq9bguJ9vz2plIqA9WR-61">
          <mxGeometry relative="1" as="geometry">
            <mxPoint x="651" y="363" as="sourcePoint" />
            <mxPoint x="675" y="420" as="targetPoint" />
          </mxGeometry>
        </mxCell>
        <mxCell id="doq9bguJ9vz2plIqA9WR-66" value="" style="endArrow=none;html=1;rounded=0;exitX=1;exitY=0.5;exitDx=0;exitDy=0;entryX=0;entryY=0.5;entryDx=0;entryDy=0;strokeColor=#000000;fillColor=#FFFFFF;" edge="1" parent="1" source="doq9bguJ9vz2plIqA9WR-56" target="doq9bguJ9vz2plIqA9WR-61">
          <mxGeometry relative="1" as="geometry">
            <mxPoint x="661" y="373" as="sourcePoint" />
            <mxPoint x="685" y="430" as="targetPoint" />
          </mxGeometry>
        </mxCell>
        <mxCell id="doq9bguJ9vz2plIqA9WR-67" value="" style="endArrow=none;html=1;rounded=0;entryX=0;entryY=0.5;entryDx=0;entryDy=0;exitX=1;exitY=0.5;exitDx=0;exitDy=0;strokeColor=#000000;fillColor=#FFFFFF;" edge="1" parent="1" source="doq9bguJ9vz2plIqA9WR-61" target="doq9bguJ9vz2plIqA9WR-57">
          <mxGeometry relative="1" as="geometry">
            <mxPoint x="550" y="490" as="sourcePoint" />
            <mxPoint x="710" y="490" as="targetPoint" />
          </mxGeometry>
        </mxCell>
        <mxCell id="doq9bguJ9vz2plIqA9WR-68" value="" style="endArrow=none;html=1;rounded=0;entryX=0;entryY=0.5;entryDx=0;entryDy=0;exitX=1;exitY=0.5;exitDx=0;exitDy=0;strokeColor=#000000;fillColor=#FFFFFF;" edge="1" parent="1" source="doq9bguJ9vz2plIqA9WR-61" target="doq9bguJ9vz2plIqA9WR-60">
          <mxGeometry relative="1" as="geometry">
            <mxPoint x="795" y="420" as="sourcePoint" />
            <mxPoint x="840" y="355" as="targetPoint" />
          </mxGeometry>
        </mxCell>
        <mxCell id="doq9bguJ9vz2plIqA9WR-69" value="" style="endArrow=none;html=1;rounded=0;entryX=0;entryY=0.5;entryDx=0;entryDy=0;exitX=1;exitY=0.5;exitDx=0;exitDy=0;strokeColor=#000000;fillColor=#FFFFFF;" edge="1" parent="1" source="doq9bguJ9vz2plIqA9WR-61" target="doq9bguJ9vz2plIqA9WR-59">
          <mxGeometry relative="1" as="geometry">
            <mxPoint x="805" y="430" as="sourcePoint" />
            <mxPoint x="850" y="365" as="targetPoint" />
          </mxGeometry>
        </mxCell>
        <mxCell id="doq9bguJ9vz2plIqA9WR-70" value="" style="endArrow=none;html=1;rounded=0;entryX=0;entryY=0.5;entryDx=0;entryDy=0;exitX=1;exitY=0.5;exitDx=0;exitDy=0;strokeColor=#000000;fillColor=#FFFFFF;" edge="1" parent="1" source="doq9bguJ9vz2plIqA9WR-61" target="doq9bguJ9vz2plIqA9WR-58">
          <mxGeometry relative="1" as="geometry">
            <mxPoint x="815" y="440" as="sourcePoint" />
            <mxPoint x="860" y="375" as="targetPoint" />
          </mxGeometry>
        </mxCell>
        <mxCell id="doq9bguJ9vz2plIqA9WR-71" value="buku" style="whiteSpace=wrap;html=1;align=center;strokeColor=#000000;fillColor=#FFFFFF;" vertex="1" parent="1">
          <mxGeometry x="685" y="580" width="90" height="40" as="geometry" />
        </mxCell>
        <mxCell id="doq9bguJ9vz2plIqA9WR-72" value="" style="endArrow=none;html=1;rounded=0;entryX=0.5;entryY=1;entryDx=0;entryDy=0;exitX=0.5;exitY=0;exitDx=0;exitDy=0;strokeColor=#000000;fillColor=#FFFFFF;" edge="1" parent="1" source="doq9bguJ9vz2plIqA9WR-71" target="doq9bguJ9vz2plIqA9WR-61">
          <mxGeometry relative="1" as="geometry">
            <mxPoint x="550" y="490" as="sourcePoint" />
            <mxPoint x="710" y="490" as="targetPoint" />
          </mxGeometry>
        </mxCell>
        <mxCell id="doq9bguJ9vz2plIqA9WR-73" value="Many" style="edgeLabel;html=1;align=center;verticalAlign=middle;resizable=0;points=[];strokeColor=#000000;fillColor=#FFFFFF;" vertex="1" connectable="0" parent="doq9bguJ9vz2plIqA9WR-72">
          <mxGeometry x="0.0143" relative="1" as="geometry">
            <mxPoint as="offset" />
          </mxGeometry>
        </mxCell>
        <mxCell id="doq9bguJ9vz2plIqA9WR-74" value="judul_buku" style="ellipse;whiteSpace=wrap;html=1;align=center;strokeColor=#000000;fillColor=#FFFFFF;" vertex="1" parent="1">
          <mxGeometry x="530" y="640" width="110" height="50" as="geometry" />
        </mxCell>
        <mxCell id="doq9bguJ9vz2plIqA9WR-75" value="&lt;u&gt;nomor_buku&lt;/u&gt;" style="ellipse;whiteSpace=wrap;html=1;align=center;strokeColor=#000000;fillColor=#FFFFFF;" vertex="1" parent="1">
          <mxGeometry x="560" y="700" width="110" height="50" as="geometry" />
        </mxCell>
        <mxCell id="doq9bguJ9vz2plIqA9WR-76" value="tahun_terbit" style="ellipse;whiteSpace=wrap;html=1;align=center;strokeColor=#000000;fillColor=#FFFFFF;" vertex="1" parent="1">
          <mxGeometry x="590" y="760" width="110" height="50" as="geometry" />
        </mxCell>
        <mxCell id="doq9bguJ9vz2plIqA9WR-77" value="penerbit" style="ellipse;whiteSpace=wrap;html=1;align=center;strokeColor=#000000;fillColor=#FFFFFF;" vertex="1" parent="1">
          <mxGeometry x="750" y="760" width="110" height="50" as="geometry" />
        </mxCell>
        <mxCell id="doq9bguJ9vz2plIqA9WR-78" value="jenis_buku" style="ellipse;whiteSpace=wrap;html=1;align=center;strokeColor=#000000;fillColor=#FFFFFF;" vertex="1" parent="1">
          <mxGeometry x="770" y="700" width="110" height="50" as="geometry" />
        </mxCell>
        <mxCell id="doq9bguJ9vz2plIqA9WR-79" value="pengarang" style="ellipse;whiteSpace=wrap;html=1;align=center;strokeColor=#000000;fillColor=#FFFFFF;" vertex="1" parent="1">
          <mxGeometry x="785" y="640" width="110" height="50" as="geometry" />
        </mxCell>
        <mxCell id="doq9bguJ9vz2plIqA9WR-80" value="" style="endArrow=none;html=1;rounded=0;entryX=1;entryY=0.5;entryDx=0;entryDy=0;exitX=0.5;exitY=1;exitDx=0;exitDy=0;strokeColor=#000000;fillColor=#FFFFFF;" edge="1" parent="1" source="doq9bguJ9vz2plIqA9WR-71" target="doq9bguJ9vz2plIqA9WR-74">
          <mxGeometry relative="1" as="geometry">
            <mxPoint x="795" y="420" as="sourcePoint" />
            <mxPoint x="830" y="595" as="targetPoint" />
          </mxGeometry>
        </mxCell>
        <mxCell id="doq9bguJ9vz2plIqA9WR-81" value="" style="endArrow=none;html=1;rounded=0;entryX=1;entryY=0.5;entryDx=0;entryDy=0;exitX=0.5;exitY=1;exitDx=0;exitDy=0;strokeColor=#000000;fillColor=#FFFFFF;" edge="1" parent="1" source="doq9bguJ9vz2plIqA9WR-71" target="doq9bguJ9vz2plIqA9WR-76">
          <mxGeometry relative="1" as="geometry">
            <mxPoint x="735" y="630" as="sourcePoint" />
            <mxPoint x="650" y="675" as="targetPoint" />
          </mxGeometry>
        </mxCell>
        <mxCell id="doq9bguJ9vz2plIqA9WR-82" value="" style="endArrow=none;html=1;rounded=0;entryX=1;entryY=0.5;entryDx=0;entryDy=0;exitX=0.5;exitY=1;exitDx=0;exitDy=0;strokeColor=#000000;fillColor=#FFFFFF;" edge="1" parent="1" source="doq9bguJ9vz2plIqA9WR-71" target="doq9bguJ9vz2plIqA9WR-75">
          <mxGeometry relative="1" as="geometry">
            <mxPoint x="745" y="640" as="sourcePoint" />
            <mxPoint x="660" y="685" as="targetPoint" />
          </mxGeometry>
        </mxCell>
        <mxCell id="doq9bguJ9vz2plIqA9WR-83" value="" style="endArrow=none;html=1;rounded=0;entryX=0;entryY=0.5;entryDx=0;entryDy=0;exitX=0.5;exitY=1;exitDx=0;exitDy=0;strokeColor=#000000;fillColor=#FFFFFF;" edge="1" parent="1" source="doq9bguJ9vz2plIqA9WR-71" target="doq9bguJ9vz2plIqA9WR-77">
          <mxGeometry relative="1" as="geometry">
            <mxPoint x="735" y="630" as="sourcePoint" />
            <mxPoint x="710" y="795" as="targetPoint" />
          </mxGeometry>
        </mxCell>
        <mxCell id="doq9bguJ9vz2plIqA9WR-84" value="" style="endArrow=none;html=1;rounded=0;entryX=0;entryY=0.5;entryDx=0;entryDy=0;exitX=0.5;exitY=1;exitDx=0;exitDy=0;strokeColor=#000000;fillColor=#FFFFFF;" edge="1" parent="1" source="doq9bguJ9vz2plIqA9WR-71" target="doq9bguJ9vz2plIqA9WR-78">
          <mxGeometry relative="1" as="geometry">
            <mxPoint x="745" y="640" as="sourcePoint" />
            <mxPoint x="720" y="805" as="targetPoint" />
          </mxGeometry>
        </mxCell>
        <mxCell id="doq9bguJ9vz2plIqA9WR-85" value="" style="endArrow=none;html=1;rounded=0;entryX=0;entryY=0.5;entryDx=0;entryDy=0;exitX=0.5;exitY=1;exitDx=0;exitDy=0;strokeColor=#000000;fillColor=#FFFFFF;" edge="1" parent="1" source="doq9bguJ9vz2plIqA9WR-71" target="doq9bguJ9vz2plIqA9WR-79">
          <mxGeometry relative="1" as="geometry">
            <mxPoint x="755" y="650" as="sourcePoint" />
            <mxPoint x="730" y="815" as="targetPoint" />
          </mxGeometry>
        </mxCell>
      </root>
    </mxGraphModel>
  </diagram>
</mxfile>
